<svg xmlns="http://www.w3.org/2000/svg" version="1.1" xmlns:xlink="http://www.w3.org/1999/xlink" xmlns:svgjs="http://svgjs.dev/svgjs" width="1500" height="314" viewBox="0 0 1500 314"><g transform="matrix(1,0,0,1,-0.9090909090911055,-0.758536759551987)"><svg viewBox="0 0 396 83" data-background-color="#ffffff" preserveAspectRatio="xMidYMid meet" height="314" width="1500" xmlns="http://www.w3.org/2000/svg" xmlns:xlink="http://www.w3.org/1999/xlink"><g id="tight-bounds" transform="matrix(1,0,0,1,0.24000000000003752,0.20050493962679639)"><svg viewBox="0 0 395.5199999999999 82.59899012074642" height="82.59899012074642" width="395.5199999999999"><g><svg viewBox="0 0 395.52000000000004 82.59899012074644" height="82.59899012074642" width="395.5199999999999"><g><svg viewBox="0 0 395.52000000000004 82.59899012074644" height="82.59899012074644" width="395.52000000000004"><g id="textblocktransform"><svg viewBox="0 0 395.52000000000004 82.59899012074644" height="82.59899012074644" width="395.52000000000004" id="textblock"><g><svg viewBox="0 0 395.52000000000004 82.59899012074644" height="82.59899012074644" width="395.52000000000004"><g transform="matrix(1,0,0,1,0,0)"><svg width="395.52000000000004" viewBox="0.24 -36.21 177.92 37.160000000000004" height="82.59899012074644" data-palette-color="#30c48d"><path d="M12.92-35.06L16.55-35.06Q16.99-35.06 17.31-34.95 17.63-34.84 17.88-34.57 18.14-34.3 18.36-33.86 18.58-33.42 18.82-32.79L18.82-32.79 30.03-2.86Q30.15-2.51 30.2-2.25 30.25-1.98 30.25-1.71L30.25-1.71Q30.25-0.83 29.72-0.42 29.2 0 28.61 0L28.61 0 14.77 0Q14.14 0 13.71-0.16 13.28-0.32 12.99-0.54 12.7-0.76 12.54-1 12.38-1.25 12.33-1.44L12.33-1.44 12.06-2.29 5.2-2.29 5.03-1.56Q4.96-1.2 4.86-0.92 4.76-0.63 4.61-0.43 4.47-0.22 4.21-0.11 3.96 0 3.54 0L3.54 0 1.03 0Q0.24 0 0.24-0.61L0.24-0.61Q0.24-0.83 0.33-1.14 0.42-1.44 0.56-1.86L0.56-1.86 10.77-32.74Q11.13-33.89 11.6-34.45 12.06-35.01 12.92-35.06L12.92-35.06ZM8.52-14.84L5.96-5.3 11.23-5.3 8.52-14.84ZM27.81-2.91L16.82-32.23Q16.63-32.74 16.35-32.87 16.06-33.01 15.38-33.01L15.38-33.01 14.53-33.01 26.07-2.05 27.25-2.05Q27.69-2.05 27.84-2.23 28-2.42 27.81-2.91L27.81-2.91ZM32.74-3.39L32.74-31.64Q32.74-32.5 32.88-33.13 33.03-33.76 33.44-34.19 33.86-34.62 34.59-34.84 35.32-35.06 36.5-35.06L36.5-35.06 48.24-35.06Q50.07-35.06 51.88-34.8 53.68-34.55 55.32-33.89 56.96-33.23 58.36-32.07 59.76-30.91 60.79-29.08 61.81-27.25 62.4-24.68 62.99-22.12 62.99-18.65L62.99-18.65Q62.99-14.58 62.36-11.61 61.74-8.64 60.68-6.57 59.62-4.49 58.16-3.21 56.71-1.93 55.04-1.21 53.37-0.49 51.57-0.24 49.78 0 48 0L48 0 36.5 0Q35.32 0 34.59-0.22 33.86-0.44 33.44-0.85 33.03-1.27 32.88-1.9 32.74-2.54 32.74-3.39L32.74-3.39ZM59.54-18.14L59.54-18.14Q59.54-21.17 59.06-23.66 58.57-26.15 57.52-27.91 56.47-29.66 54.84-30.64 53.22-31.62 50.95-31.64L50.95-31.64 50.95-3.39Q53.22-3.42 54.86-4.58 56.49-5.74 57.53-7.74 58.57-9.74 59.06-12.41 59.54-15.09 59.54-18.14ZM48.87-3.37L48.87-31.69 46.97-31.69 46.97-3.37 48.87-3.37ZM82.08-33.15L85.76-20.19 89.13-33.06Q89.23-33.5 89.33-33.86 89.42-34.23 89.58-34.5 89.74-34.77 90-34.91 90.25-35.06 90.69-35.06L90.69-35.06 93.16-35.06Q93.53-35.06 93.75-34.91 93.96-34.77 93.96-34.42L93.96-34.42Q93.96-33.96 93.72-33.2L93.72-33.2 83.52-2.29Q83.15-1.17 82.65-0.59 82.15 0 81.1 0L81.1 0 77.7 0Q77.14 0 76.78-0.22 76.41-0.44 76.15-0.77 75.9-1.1 75.74-1.49 75.58-1.88 75.46-2.25L75.46-2.25 64.25-32.2Q64.01-32.84 64.01-33.35L64.01-33.35Q64.01-34.2 64.55-34.63 65.08-35.06 65.67-35.06L65.67-35.06 79.51-35.06Q80.12-35.06 80.55-34.92 80.98-34.79 81.27-34.53 81.56-34.28 81.76-33.92 81.95-33.57 82.08-33.15L82.08-33.15ZM84.76-16.33L80.22-32.25Q80.1-32.67 79.83-32.84 79.56-33.01 79.15-33.01L79.15-33.01 78.05-33.01 83.81-12.74 84.76-16.33ZM96.26-3.39L96.26-31.64Q96.26-32.5 96.4-33.13 96.55-33.76 96.97-34.19 97.38-34.62 98.11-34.84 98.85-35.06 100.02-35.06L100.02-35.06 110.91-35.06Q112.32-35.06 113.07-34.64 113.81-34.23 114.12-33.61 114.42-32.98 114.45-32.29 114.47-31.59 114.47-31.01L114.47-31.01 114.47-3.96Q114.47-3.39 114.37-2.71 114.27-2.03 113.88-1.43 113.49-0.83 112.69-0.42 111.88 0 110.47 0L110.47 0 100.02 0Q98.85 0 98.11-0.22 97.38-0.44 96.97-0.85 96.55-1.27 96.4-1.9 96.26-2.54 96.26-3.39L96.26-3.39ZM112.39-3.61L112.39-31.45Q112.39-31.98 112.32-32.3 112.25-32.62 112.03-32.78 111.81-32.93 111.44-32.97 111.08-33.01 110.49-33.01L110.49-33.01 110.49-2.05Q111.08-2.05 111.44-2.09 111.81-2.12 112.03-2.28 112.25-2.44 112.32-2.75 112.39-3.05 112.39-3.61L112.39-3.61ZM136.68-17.63L136.68-17.63Q136.68-14.62 136.93-12.44 137.17-10.25 137.58-8.73 137.98-7.2 138.53-6.26 139.08-5.32 139.66-4.8 140.25-4.27 140.85-4.09 141.45-3.91 141.98-3.91L141.98-3.91Q142.59-3.91 143.08-4.06 143.57-4.22 143.96-4.43 144.35-4.64 144.61-4.8 144.86-4.96 145.01-4.96L145.01-4.96Q145.2-4.96 145.35-4.74L145.35-4.74 146.4-3.08Q146.47-2.93 146.47-2.83L146.47-2.83Q146.47-2.71 146.38-2.62 146.28-2.54 146.21-2.47L146.21-2.47Q145.45-1.88 144.28-1.27 143.11-0.66 141.6-0.17 140.1 0.32 138.3 0.63 136.49 0.95 134.49 0.95L134.49 0.95Q132.66 0.95 130.74 0.6 128.82 0.24 127.02-0.6 125.21-1.44 123.61-2.83 122.01-4.22 120.82-6.29 119.62-8.35 118.92-11.15 118.23-13.94 118.23-17.63L118.23-17.63Q118.23-21.31 118.92-24.11 119.62-26.9 120.82-28.97 122.01-31.03 123.61-32.42 125.21-33.81 127.02-34.66 128.82-35.5 130.74-35.85 132.66-36.21 134.49-36.21L134.49-36.21Q136.49-36.21 138.3-35.89 140.1-35.57 141.6-35.08 143.11-34.59 144.28-33.98 145.45-33.37 146.21-32.79L146.21-32.79Q146.28-32.71 146.38-32.63 146.47-32.54 146.47-32.42L146.47-32.42Q146.47-32.32 146.4-32.18L146.4-32.18 145.35-30.52Q145.2-30.3 145.01-30.3L145.01-30.3Q144.86-30.3 144.61-30.46 144.35-30.62 143.96-30.82 143.57-31.03 143.08-31.19 142.59-31.35 141.98-31.35L141.98-31.35Q141.45-31.35 140.85-31.16 140.25-30.98 139.66-30.46 139.08-29.93 138.53-28.99 137.98-28.05 137.58-26.53 137.17-25 136.93-22.81 136.68-20.63 136.68-17.63ZM132.56-17.63L132.56-17.63Q132.56-14.6 132.84-12.38 133.12-10.16 133.62-8.56 134.12-6.96 134.79-5.91 135.46-4.86 136.23-4.19 137-3.52 137.82-3.16 138.64-2.81 139.44-2.61L139.44-2.61Q139.17-2.78 138.71-3.09 138.25-3.39 137.7-4.02 137.15-4.64 136.6-5.68 136.05-6.71 135.6-8.33 135.15-9.94 134.87-12.22 134.58-14.5 134.58-17.63L134.58-17.63Q134.58-20.75 134.87-23.03 135.15-25.32 135.6-26.93 136.05-28.54 136.6-29.58 137.15-30.62 137.7-31.24 138.25-31.86 138.71-32.17 139.17-32.47 139.44-32.64L139.44-32.64Q138.64-32.42 137.82-32.08 137-31.74 136.23-31.07 135.46-30.4 134.79-29.35 134.12-28.3 133.62-26.7 133.12-25.1 132.84-22.88 132.56-20.65 132.56-17.63ZM176.75-22.8L167.66-22.8 167.66-3Q170.03-3.34 172.01-3.61L172.01-3.61Q172.84-3.74 173.68-3.85 174.52-3.96 175.23-4.05 175.94-4.15 176.45-4.2 176.97-4.25 177.16-4.25L177.16-4.25Q177.58-4.25 177.87-4.09 178.16-3.93 178.16-3.44L178.16-3.44 178.16-1.2Q178.16-0.76 177.94-0.38 177.72 0 176.89 0L176.89 0 153.16 0Q152.01 0 151.29-0.22 150.57-0.44 150.16-0.85 149.74-1.27 149.6-1.9 149.45-2.54 149.45-3.39L149.45-3.39 149.45-30.81Q149.45-32.2 149.77-33.04 150.09-33.89 150.67-34.34 151.26-34.79 152.07-34.92 152.89-35.06 153.89-35.06L153.89-35.06 175.96-35.06Q176.79-35.06 177.03-34.68 177.26-34.3 177.26-33.84L177.26-33.84 177.26-32.1Q177.26-31.62 177-31.46 176.75-31.3 176.33-31.3L176.33-31.3Q176.09-31.3 175.59-31.35 175.09-31.4 174.43-31.48 173.77-31.57 173.01-31.67 172.25-31.76 171.5-31.88L171.5-31.88Q169.74-32.15 167.66-32.5L167.66-32.5 167.66-26.29 176.75-26.29Q177.26-26.29 177.26-25.78L177.26-25.78 177.26-23.34Q177.26-22.8 176.75-22.8L176.75-22.8ZM165.59-2.71L165.59-32.84 163.68-33.11 163.68-2.47 165.59-2.71Z" opacity="1" transform="matrix(1,0,0,1,0,0)" fill="#30c48d" class="wordmark-text-0" data-fill-palette-color="primary" id="text-0"></path></svg></g></svg></g></svg></g></svg></g><g></g></svg></g><defs></defs></svg><rect width="395.5199999999999" height="82.59899012074642" fill="none" stroke="none" visibility="hidden"></rect></g></svg></g></svg>